<svg width="325" height="154" viewBox="0 0 325 154" fill="none" xmlns="http://www.w3.org/2000/svg">
<path d="M196.528 16.9204C196.528 16.9204 196.979 12.3857 197.881 10.3553C198.784 8.2797 200.025 6.47486 201.604 4.94075C203.183 3.40663 205.056 2.21093 207.221 1.35363C209.432 0.451207 238.12 0 240.692 0C243.264 0 245.655 0.45121 247.866 1.35363C250.077 2.21093 251.972 3.40663 253.552 4.94075C255.131 6.47486 256.372 8.27971 257.274 10.3553C258.177 12.3857 258.628 14.5741 258.628 16.9204C258.628 19.2667 258.177 90.4389 257.274 92.5145C256.372 94.5449 255.131 96.3272 253.552 97.8613C251.972 99.3954 250.077 100.614 247.866 101.516C245.655 102.419 243.264 102.87 240.692 102.87C238.12 102.87 209.432 102.419 207.221 101.516C205.056 100.614 203.183 99.3954 201.604 97.8613C200.025 96.3272 198.784 94.5449 197.881 92.5145C196.979 90.4389 196.528 16.9204 196.528 16.9204ZM205.056 16.8527C205.056 18.1161 205.281 88.2957 205.732 89.4688C206.229 90.5968 206.883 91.5895 207.695 92.4468C208.507 93.3041 209.478 93.9809 210.606 94.4773C211.734 94.9736 239.271 95.2217 240.624 95.2217C241.978 95.2217 243.219 94.9736 244.347 94.4773C245.475 93.9809 246.445 93.3041 247.257 92.4468C248.069 91.5895 248.701 90.5968 249.152 89.4688C249.649 88.2957 249.897 18.1161 249.897 16.8527C249.897 15.5442 249.649 14.3259 249.152 13.1979C248.701 12.0699 248.069 11.0772 247.257 10.2199C246.445 9.36261 245.475 8.68579 244.347 8.18946C243.219 7.69313 241.978 7.44497 240.624 7.44497C239.271 7.44497 211.734 7.69313 210.606 8.18946C209.478 8.68579 208.507 9.36261 207.695 10.2199C206.883 11.0772 206.229 12.0699 205.732 13.1979C205.281 14.3259 205.056 15.5442 205.056 16.8527Z" fill="white"/>
<path d="M273.675 102.125H265.012V53.3945H273.675V102.125Z" fill="white"/>
<path d="M309.238 98.6058C308.652 99.057 307.907 99.5308 307.005 100.027C306.147 100.523 305.132 100.997 303.959 101.448C302.831 101.855 301.568 102.193 300.169 102.464C298.815 102.734 297.394 102.87 295.905 102.87C293.288 102.87 290.919 102.441 288.798 101.584C286.678 100.681 284.85 99.4631 283.316 97.929C281.827 96.3949 280.677 94.59 279.864 92.5145C279.052 90.4389 278.646 88.228 278.646 85.8817C278.646 83.4903 279.075 81.2793 279.932 79.2489C280.789 77.1733 281.963 75.391 283.452 73.902C284.986 72.3679 286.813 71.1722 288.934 70.3149C291.054 69.4125 293.378 68.9613 295.905 68.9613C298.567 68.9613 300.936 69.4125 303.011 70.3149C305.132 71.1722 306.914 72.3679 308.358 73.902C309.802 75.391 310.885 77.1733 311.607 79.2489C312.374 81.2793 312.758 83.4903 312.758 85.8817C312.758 86.378 312.735 86.8969 312.69 87.4384C312.645 87.9347 312.577 88.431 312.487 88.9273L287.783 88.8597C288.325 91.0255 289.385 92.6724 290.964 93.8004C292.589 94.8833 294.461 95.4248 296.582 95.4248C297.755 95.4248 298.793 95.3345 299.695 95.1541C300.598 94.9285 301.387 94.6577 302.064 94.3419C302.741 94.026 303.305 93.7102 303.756 93.3943C304.252 93.0785 304.636 92.7852 304.907 92.5145L309.238 98.6058ZM303.959 83.3098C303.869 81.1891 303.147 79.497 301.793 78.2336C300.44 76.9251 298.567 76.2709 296.176 76.2709C293.92 76.2709 292.025 76.9026 290.49 78.1659C289.001 79.3842 288.031 81.0988 287.58 83.3098H303.959Z" fill="white"/>
<circle cx="227.003" cy="23.4039" r="6.01367" fill="white"/>
<path d="M31.364 93.0388C33.9685 93.0388 36.3674 92.4676 38.5607 91.3253C40.7997 90.1373 42.5818 88.4009 43.9069 86.1162L51.4463 91.0511C50.4411 92.6961 49.2073 94.1811 47.7451 95.5062C46.3286 96.7857 44.7294 97.9052 42.9473 98.8647C41.211 99.7786 39.3375 100.487 37.327 100.989C35.3622 101.492 33.3517 101.743 31.2955 101.743C28.0055 101.743 24.8984 101.149 21.974 99.9614C19.0953 98.7276 16.5821 97.0598 14.4345 94.9579C12.3326 92.8103 10.6648 90.32 9.43109 87.487C8.19737 84.6083 7.58051 81.524 7.58051 78.2341C7.58051 74.9441 8.19737 71.8827 9.43109 69.0497C10.6648 66.171 12.3326 63.6807 14.4345 61.5788C16.5821 59.4312 19.0953 57.7634 21.974 56.5753C24.8984 55.3416 28.0055 54.7247 31.2955 54.7247C33.3974 54.7247 35.4307 54.9761 37.3956 55.4787C39.4061 55.9813 41.2795 56.7124 43.0159 57.672C44.7979 58.5859 46.3972 59.7053 47.8137 61.0305C49.2759 62.3556 50.4868 63.8406 51.4463 65.4856L43.9069 70.3519C42.6732 68.113 40.914 66.3766 38.6293 65.1429C36.3903 63.9092 33.9685 63.2923 31.364 63.2923C29.3078 63.2923 27.3887 63.6807 25.6066 64.4575C23.8246 65.1886 22.2481 66.2167 20.8773 67.5418C19.5522 68.8669 18.5013 70.4433 17.7245 72.2711C16.9934 74.0988 16.6278 76.0865 16.6278 78.2341C16.6278 80.3817 17.0162 82.3694 17.793 84.1971C18.5698 85.9791 19.6208 87.5327 20.9459 88.8578C22.271 90.183 23.8246 91.2111 25.6066 91.9422C27.3887 92.6732 29.3078 93.0388 31.364 93.0388Z" fill="white"/>
<path d="M54.3625 84.3342C54.3625 81.9581 54.8194 79.742 55.7333 77.6858C56.6472 75.5839 57.9037 73.7561 59.503 72.2025C61.1023 70.649 62.9986 69.4381 65.1919 68.5699C67.4309 67.656 69.8526 67.1991 72.4571 67.1991C75.0617 67.1991 77.4834 67.656 79.7224 68.5699C81.9614 69.4381 83.8805 70.649 85.4798 72.2025C87.0791 73.7561 88.3357 75.5839 89.2495 77.6858C90.1634 79.742 90.6203 81.9581 90.6203 84.3342C90.6203 86.7102 90.1634 88.9492 89.2495 91.0511C88.3357 93.1073 87.0791 94.9122 85.4798 96.4658C83.8805 98.0194 81.9614 99.2531 79.7224 100.167C77.4834 101.081 75.0617 101.538 72.4571 101.538C69.8526 101.538 67.4309 101.081 65.1919 100.167C62.9986 99.2531 61.1023 98.0194 59.503 96.4658C57.9037 94.9122 56.6472 93.1073 55.7333 91.0511C54.8194 88.9492 54.3625 86.7102 54.3625 84.3342ZM62.9986 84.2656C62.9986 85.5451 63.227 86.7788 63.684 87.9668C64.1866 89.1092 64.8492 90.1144 65.6717 90.9826C66.4941 91.8508 67.4765 92.5362 68.6189 93.0388C69.7612 93.5414 71.0178 93.7927 72.3886 93.7927C73.7594 93.7927 75.016 93.5414 76.1583 93.0388C77.3007 92.5362 78.2831 91.8508 79.1056 90.9826C79.928 90.1144 80.5678 89.1092 81.0247 87.9668C81.5273 86.7788 81.7786 85.5451 81.7786 84.2656C81.7786 82.9405 81.5273 81.7068 81.0247 80.5645C80.5678 79.4221 79.928 78.4169 79.1056 77.5487C78.2831 76.6805 77.3007 75.9951 76.1583 75.4925C75.016 74.9898 73.7594 74.7385 72.3886 74.7385C71.0178 74.7385 69.7612 74.9898 68.6189 75.4925C67.4765 75.9951 66.4941 76.6805 65.6717 77.5487C64.8492 78.4169 64.1866 79.4221 63.684 80.5645C63.227 81.7068 62.9986 82.9405 62.9986 84.2656Z" fill="white"/>
<path d="M104.281 100.784H95.5081V67.7474H103.048L103.39 72.8194C104.441 71.1744 105.721 69.8036 107.229 68.707C108.782 67.6103 110.564 67.062 112.575 67.062C113.077 67.062 113.603 67.1077 114.151 67.1991C114.745 67.2448 115.339 67.3819 115.933 67.6103L115.865 76.0408C115.225 75.8123 114.585 75.6524 113.945 75.561C113.351 75.4239 112.735 75.3554 112.095 75.3554C109.902 75.3554 108.051 76.0636 106.543 77.4801C105.035 78.8966 104.281 81.0214 104.281 83.8544V100.784Z" fill="white"/>
<path d="M129.582 100.784H120.809V67.7474H128.349L128.76 72.8879C130.085 71.1516 131.661 69.7579 133.489 68.707C135.317 67.6103 137.327 67.062 139.521 67.062C141.805 67.062 143.77 67.4504 145.415 68.2272C147.06 69.004 148.408 70.0778 149.459 71.4486C150.51 72.7737 151.287 74.373 151.789 76.2464C152.292 78.0742 152.543 80.0618 152.543 82.2094V100.784H143.77V83.0319C143.77 81.9353 143.656 80.9072 143.427 79.9476C143.245 78.988 142.902 78.1655 142.399 77.4801C141.942 76.749 141.303 76.1779 140.48 75.7666C139.658 75.3554 138.607 75.1498 137.327 75.1498C136.231 75.1498 135.203 75.3782 134.243 75.8352C133.283 76.2921 132.461 76.9318 131.776 77.7543C131.09 78.5311 130.542 79.445 130.131 80.4959C129.765 81.5469 129.582 82.6664 129.582 83.8544V100.784Z" fill="white"/>
<path d="M168.136 100.784H159.363V51.4348H168.205L168.136 71.9969C169.461 70.5347 170.969 69.3467 172.66 68.4328C174.396 67.5189 176.247 67.062 178.212 67.062C180.496 67.062 182.461 67.4504 184.106 68.2272C185.751 69.004 187.076 70.0778 188.081 71.4486C189.132 72.7737 189.886 74.373 190.343 76.2464C190.846 78.0742 191.097 80.0618 191.097 82.2094V100.784H182.324V83.0319C182.324 81.9353 182.21 80.9072 181.981 79.9476C181.799 78.988 181.456 78.1655 180.953 77.4801C180.496 76.749 179.857 76.1779 179.034 75.7666C178.212 75.3554 177.161 75.1498 175.881 75.1498C174.785 75.1498 173.757 75.3782 172.797 75.8352C171.837 76.2921 171.015 76.909 170.33 77.6858C169.644 78.4626 169.096 79.3764 168.685 80.4274C168.319 81.4326 168.136 82.5293 168.136 83.7173V100.784Z" fill="white"/>
<path d="M231.581 46.5193C231.786 44.9882 233.256 43.7177 232.983 42.0505C232.691 42.3674 230.831 41.8648 230.467 41.8084C229.452 41.6558 228.44 41.4866 227.429 41.3107C225.908 41.0443 224.554 40.1159 223.063 39.7106C222.223 39.7485 222.584 44.265 222.348 44.8852L221.596 47.6188C221.453 48.2332 220.997 48.795 220.533 49.3404C221.202 49.6894 221.81 50.0977 222.553 50.2095C223.579 50.3621 224.593 50.6635 225.592 50.9425C226.191 51.1116 230.199 52.7399 230.731 52.2918C231.164 51.9282 230.758 50.5215 230.924 49.9645C231.258 48.8466 231.426 47.6722 231.581 46.5193Z" fill="white"/>
<path d="M223.828 57.5637C222.997 56.2614 223.301 54.3424 222.016 53.2447C221.998 53.6749 220.252 54.4911 219.938 54.6826C219.064 55.2206 218.182 55.7442 217.295 56.2619C215.961 57.0397 214.328 57.2038 212.927 57.8554C212.31 58.4261 215.499 61.6447 215.719 62.271L216.908 64.8445C217.195 65.4062 217.208 66.1303 217.206 66.8461C217.942 66.6814 218.67 66.6008 219.31 66.2071C220.193 65.6616 221.162 65.2378 222.105 64.807C222.671 64.5499 226.784 63.2087 226.902 62.5226C226.998 61.9658 225.781 61.153 225.548 60.6202C225.083 59.5502 224.454 58.5444 223.828 57.5637Z" fill="white"/>
<path d="M184.89 23.5751C185.095 22.0443 186.564 20.7741 186.291 19.1073C186 19.4241 184.14 18.9216 183.776 18.8653C182.761 18.7127 181.75 18.5436 180.739 18.3677C179.218 18.1014 177.864 17.1732 176.374 16.7679C175.534 16.8058 175.895 21.3212 175.659 21.9413L174.908 24.6743C174.765 25.2885 174.308 25.8502 173.844 26.3955C174.513 26.7444 175.121 27.1526 175.864 27.2643C176.89 27.4169 177.904 27.7182 178.902 27.9971C179.501 28.1663 183.508 29.7942 184.04 29.3461C184.473 28.9826 184.067 27.5763 184.233 27.0194C184.567 25.9018 184.735 24.7277 184.89 23.5751Z" fill="white"/>
<path d="M169.464 25.6475L155.044 35.5929" stroke="white" stroke-width="0.994702" stroke-miterlimit="10"/>
<path d="M171.553 29.1763L157.133 39.1202" stroke="white" stroke-width="0.994702" stroke-miterlimit="10"/>
<path d="M173.844 32.3691L159.423 42.314" stroke="white" stroke-width="0.994702" stroke-miterlimit="10"/>
<path d="M99.7596 127.082H93.5834V144.103H91.4087V127.082H85.2035V125.023H99.7596V127.082ZM98.8374 137.288C98.8374 136.322 99.021 135.413 99.3883 134.563C99.7556 133.693 100.258 132.939 100.896 132.301C101.534 131.663 102.278 131.161 103.129 130.793C103.999 130.407 104.927 130.213 105.912 130.213C106.898 130.213 107.816 130.407 108.667 130.793C109.537 131.161 110.291 131.663 110.929 132.301C111.567 132.939 112.069 133.693 112.437 134.563C112.804 135.413 112.987 136.322 112.987 137.288C112.987 138.255 112.804 139.173 112.437 140.043C112.069 140.894 111.567 141.638 110.929 142.276C110.291 142.914 109.537 143.426 108.667 143.813C107.816 144.18 106.898 144.364 105.912 144.364C104.927 144.364 103.999 144.18 103.129 143.813C102.278 143.426 101.534 142.914 100.896 142.276C100.258 141.638 99.7556 140.894 99.3883 140.043C99.021 139.173 98.8374 138.255 98.8374 137.288ZM101.012 137.288C101.012 137.984 101.138 138.642 101.389 139.26C101.64 139.859 101.979 140.391 102.404 140.855C102.848 141.319 103.37 141.686 103.97 141.957C104.569 142.208 105.217 142.334 105.912 142.334C106.608 142.334 107.256 142.208 107.855 141.957C108.454 141.686 108.967 141.319 109.392 140.855C109.837 140.391 110.185 139.859 110.436 139.26C110.687 138.642 110.813 137.984 110.813 137.288C110.813 136.593 110.687 135.945 110.436 135.346C110.185 134.727 109.837 134.186 109.392 133.722C108.967 133.258 108.454 132.9 107.855 132.649C107.256 132.378 106.608 132.243 105.912 132.243C105.217 132.243 104.569 132.378 103.97 132.649C103.37 132.9 102.848 133.258 102.404 133.722C101.979 134.186 101.64 134.727 101.389 135.346C101.138 135.945 101.012 136.593 101.012 137.288ZM126.022 130.474H128.139V144.103H126.225L126.138 141.551C125.635 142.382 124.978 143.059 124.166 143.581C123.354 144.103 122.417 144.364 121.354 144.364C120.29 144.364 119.391 144.199 118.657 143.871C117.942 143.523 117.362 143.059 116.917 142.479C116.473 141.899 116.154 141.222 115.96 140.449C115.767 139.656 115.67 138.825 115.67 137.955V130.474H117.787V137.288C117.787 138.004 117.835 138.671 117.932 139.289C118.029 139.908 118.203 140.449 118.454 140.913C118.725 141.358 119.092 141.706 119.556 141.957C120.02 142.208 120.619 142.334 121.354 142.334C122.011 142.334 122.62 142.198 123.18 141.928C123.76 141.638 124.253 141.261 124.659 140.797C125.084 140.333 125.413 139.801 125.645 139.202C125.896 138.584 126.022 137.946 126.022 137.288V130.474ZM134.304 144.103H132.187V130.474H134.043L134.13 132.939C134.574 132.146 135.125 131.499 135.783 130.996C136.459 130.474 137.232 130.213 138.102 130.213C138.585 130.213 139.069 130.3 139.552 130.474V132.649C139.088 132.533 138.663 132.475 138.276 132.475C137.658 132.475 137.097 132.61 136.594 132.881C136.111 133.132 135.696 133.48 135.348 133.925C135.019 134.35 134.758 134.853 134.565 135.433C134.391 136.013 134.304 136.631 134.304 137.288V144.103ZM144.356 144.103H142.239V130.474H144.124L144.211 133.113C144.752 132.262 145.429 131.567 146.241 131.025C147.053 130.484 147.971 130.213 148.995 130.213C150.059 130.213 150.948 130.387 151.663 130.735C152.398 131.064 152.987 131.518 153.432 132.098C153.876 132.678 154.195 133.355 154.389 134.128C154.582 134.901 154.679 135.723 154.679 136.593V144.103H152.562V137.027C152.562 136.37 152.514 135.752 152.417 135.172C152.32 134.592 152.137 134.089 151.866 133.664C151.595 133.219 151.228 132.871 150.764 132.62C150.32 132.369 149.73 132.243 148.995 132.243C148.338 132.243 147.72 132.388 147.14 132.678C146.579 132.949 146.086 133.316 145.661 133.78C145.255 134.244 144.936 134.785 144.704 135.404C144.472 136.003 144.356 136.631 144.356 137.288V144.103ZM158.119 132.736C158.409 132.427 158.757 132.127 159.163 131.837C159.569 131.528 160.013 131.257 160.497 131.025C160.98 130.774 161.511 130.581 162.091 130.445C162.671 130.291 163.28 130.213 163.918 130.213C165.581 130.213 166.895 130.697 167.862 131.663C168.847 132.61 169.34 133.886 169.34 135.491V144.103H167.456L167.34 141.957C166.779 142.711 166.083 143.3 165.252 143.726C164.44 144.151 163.502 144.364 162.439 144.364C161.782 144.364 161.163 144.257 160.584 144.045C160.023 143.832 159.53 143.542 159.105 143.175C158.699 142.788 158.38 142.343 158.148 141.841C157.916 141.338 157.8 140.787 157.8 140.188C157.8 138.951 158.283 137.975 159.25 137.259C160.216 136.525 161.54 136.158 163.222 136.158H167.224V135.81C167.224 134.63 166.934 133.741 166.354 133.142C165.793 132.543 165.001 132.243 163.976 132.243C163.01 132.243 162.149 132.456 161.395 132.881C160.641 133.306 160.023 133.77 159.54 134.273L158.119 132.736ZM167.224 138.071L163.541 138.042C162.42 138.023 161.569 138.216 160.989 138.622C160.41 139.009 160.12 139.511 160.12 140.13C160.12 140.691 160.342 141.203 160.786 141.667C161.25 142.111 161.946 142.334 162.874 142.334C163.473 142.334 164.034 142.237 164.556 142.044C165.097 141.831 165.561 141.551 165.948 141.203C166.334 140.836 166.644 140.41 166.876 139.927C167.108 139.444 167.224 138.912 167.224 138.332V138.071ZM175.249 144.103H173.133V130.474H175.017L175.104 132.939C175.607 132.127 176.245 131.47 177.018 130.967C177.811 130.465 178.729 130.213 179.773 130.213C181.145 130.213 182.228 130.503 183.02 131.083C183.813 131.644 184.393 132.388 184.76 133.316C185.301 132.407 185.997 131.663 186.848 131.083C187.698 130.503 188.694 130.213 189.834 130.213C190.859 130.213 191.719 130.387 192.415 130.735C193.13 131.064 193.701 131.518 194.126 132.098C194.571 132.678 194.88 133.355 195.054 134.128C195.247 134.901 195.344 135.723 195.344 136.593V144.103H193.227V137.027C193.227 136.37 193.179 135.752 193.082 135.172C193.005 134.592 192.84 134.089 192.589 133.664C192.357 133.219 192.019 132.871 191.574 132.62C191.13 132.369 190.54 132.243 189.805 132.243C189.148 132.243 188.539 132.388 187.979 132.678C187.437 132.949 186.964 133.316 186.558 133.78C186.152 134.244 185.833 134.785 185.601 135.404C185.388 136.003 185.282 136.631 185.282 137.288V144.103H183.165V137.027C183.165 136.37 183.127 135.752 183.049 135.172C182.972 134.592 182.808 134.089 182.556 133.664C182.305 133.219 181.957 132.871 181.513 132.62C181.068 132.369 180.478 132.243 179.744 132.243C179.087 132.243 178.478 132.388 177.917 132.678C177.376 132.949 176.902 133.316 176.496 133.78C176.11 134.244 175.8 134.785 175.568 135.404C175.356 136.003 175.249 136.631 175.249 137.288V144.103ZM210.465 142.711C210.175 142.904 209.857 143.097 209.509 143.291C209.18 143.484 208.803 143.658 208.378 143.813C207.972 143.967 207.508 144.093 206.986 144.19C206.483 144.306 205.913 144.364 205.275 144.364C204.154 144.364 203.149 144.18 202.26 143.813C201.39 143.426 200.655 142.914 200.056 142.276C199.457 141.638 198.993 140.894 198.664 140.043C198.355 139.173 198.2 138.255 198.2 137.288C198.2 136.322 198.374 135.413 198.722 134.563C199.07 133.693 199.553 132.939 200.172 132.301C200.79 131.663 201.535 131.161 202.405 130.793C203.274 130.407 204.231 130.213 205.275 130.213C206.377 130.213 207.344 130.407 208.175 130.793C209.025 131.161 209.721 131.663 210.262 132.301C210.823 132.939 211.239 133.693 211.509 134.563C211.799 135.413 211.944 136.322 211.944 137.288C211.944 137.598 211.915 137.926 211.857 138.274H200.578C200.79 139.492 201.322 140.478 202.173 141.232C203.042 141.966 204.077 142.334 205.275 142.334C206.28 142.334 207.102 142.198 207.74 141.928C208.378 141.638 208.919 141.319 209.364 140.971L210.465 142.711ZM209.654 136.332C209.654 135.017 209.248 134.012 208.436 133.316C207.643 132.601 206.59 132.243 205.275 132.243C203.961 132.243 202.888 132.63 202.057 133.403C201.245 134.157 200.742 135.133 200.549 136.332H209.654ZM217.13 144.103H215.013V130.474H216.898L216.985 133.113C217.526 132.262 218.202 131.567 219.014 131.025C219.826 130.484 220.744 130.213 221.769 130.213C222.832 130.213 223.721 130.387 224.437 130.735C225.171 131.064 225.761 131.518 226.205 132.098C226.65 132.678 226.969 133.355 227.162 134.128C227.356 134.901 227.452 135.723 227.452 136.593V144.103H225.336V137.027C225.336 136.37 225.287 135.752 225.191 135.172C225.094 134.592 224.91 134.089 224.64 133.664C224.369 133.219 224.002 132.871 223.538 132.62C223.093 132.369 222.504 132.243 221.769 132.243C221.112 132.243 220.493 132.388 219.913 132.678C219.353 132.949 218.86 133.316 218.434 133.78C218.028 134.244 217.71 134.785 217.478 135.404C217.246 136.003 217.13 136.631 217.13 137.288V144.103ZM232.199 130.474L232.692 126.705H234.316V130.474H238.694V132.388H234.316V139.869C234.316 140.778 234.461 141.406 234.751 141.754C235.06 142.082 235.524 142.247 236.143 142.247C236.471 142.247 236.848 142.208 237.274 142.131C237.699 142.053 238.172 141.957 238.694 141.841V143.871C238.134 144.045 237.602 144.17 237.1 144.248C236.616 144.325 236.172 144.364 235.766 144.364C234.49 144.364 233.572 144.025 233.011 143.349C232.47 142.653 232.199 141.754 232.199 140.652V132.388H229.445V130.474H232.199Z" fill="white"/>
</svg>
