<svg width="92" height="74" viewBox="0 0 92 74" fill="none" xmlns="http://www.w3.org/2000/svg">
<path d="M90.756 41.2161L90.717 41.1881L90.775 41.3281L90.756 41.2161Z" fill="black"/>
<path d="M91.441 45.5561L90.79 41.4211L17.4 70.8271L0 46.7071V49.2831L0.02 49.3121L17.337 73.7331L17.417 73.7041L80.728 49.6301L84.132 52.6251L85.477 60.0191L88.557 59.0681L87.776 46.9501L91.441 45.5561Z" fill="black"/>
<path d="M41.402 8.88416C41.357 8.88716 41.297 8.89216 41.248 8.89216C41.282 8.89216 41.333 8.88916 41.402 8.88416Z" fill="black"/>
<path d="M41.456 8.88318C41.433 8.88418 41.423 8.88418 41.403 8.88418C41.431 8.88418 41.456 8.88318 41.456 8.88318Z" fill="black"/>
<path d="M41.248 8.89209C41.177 8.89509 41.146 8.89609 41.248 8.89209Z" fill="black"/>
<path d="M50.218 15.8872C50.429 14.3122 51.941 13.0052 51.66 11.2902C51.36 11.6162 49.446 11.0992 49.072 11.0412C48.028 10.8842 46.987 10.7102 45.947 10.5292C44.382 10.2552 42.989 9.30018 41.456 8.88318C40.592 8.92218 40.963 13.5682 40.72 14.2062L39.947 17.0182C39.8 17.6502 39.33 18.2282 38.853 18.7892C39.541 19.1482 40.167 19.5682 40.931 19.6832C41.987 19.8402 43.03 20.1502 44.057 20.4372C44.673 20.6112 48.796 22.2862 49.344 21.8252C49.789 21.4512 49.371 20.0042 49.542 19.4312C49.886 18.2812 50.059 17.0732 50.218 15.8872Z" fill="black"/>
<path d="M64.992 23.0021L64.937 23.0211L0.237 46.2081L17.57 70.2361L90.483 41.0211L64.992 23.0021ZM34.573 45.7341C34.822 45.6901 34.989 44.7511 35.092 43.8451C35.169 43.1851 35.21 42.5431 35.225 42.2831C35.896 41.9331 38.701 42.4391 39.43 42.5801C39.412 42.6161 39.393 42.6531 39.375 42.6891C38.896 43.5751 38.284 44.4111 37.692 45.2171L37.523 45.4471C37.508 45.4701 37.452 45.5441 37.374 45.6451C37.243 45.8171 37.13 45.9671 37.031 46.0971C36.824 46.3711 36.682 46.5631 36.586 46.6981C36.576 46.6951 36.567 46.6921 36.556 46.6881L36.524 46.7621C36.53 46.7641 36.532 46.7641 36.537 46.7661C36.519 46.7921 36.51 46.8061 36.496 46.8271L36.402 47.0431L37.023 47.5341C35.908 47.3581 34.711 46.5041 34.697 46.4931C34.526 46.3591 34.437 46.2181 34.432 46.0701C34.425 45.8991 34.539 45.7691 34.573 45.7341ZM38.354 51.9721C37.919 51.4591 31.004 50.9061 31.004 50.9061C29.543 51.0241 31.124 49.2461 31.124 49.2461C31.281 46.7591 32.861 44.9391 32.861 44.9391C33.126 43.9441 33.866 44.3151 34.233 44.5761C34.121 45.5551 33.959 46.4421 33.771 46.4421H33.755L33.744 46.4531C33.737 46.4591 33.56 46.6221 33.57 46.8591C33.576 47.0301 33.675 47.1921 33.866 47.3421C33.927 47.3861 35.197 48.2921 36.361 48.4161L39.121 50.6061L39.119 50.6141L39.125 50.6151C39.128 50.6151 39.129 50.6161 39.131 50.6161C39.131 50.6181 39.131 50.6191 39.131 50.6191C39.133 50.6551 39.174 50.6681 39.22 50.6801L39.304 50.7051C39.322 52.8301 38.354 51.9721 38.354 51.9721ZM46.423 48.5951C46.145 49.2671 45.82 50.0511 45.476 50.8101C45.364 51.0581 45.243 51.3221 45.112 51.5751C45.1 51.5961 45.088 51.6211 45.076 51.6471C45.031 51.7411 44.976 51.8591 44.902 51.9061L44.884 51.9181V51.9401C44.885 52.0831 44.866 52.5501 44.552 52.5961C44.526 52.6001 44.499 52.6021 44.472 52.6021C44.144 52.6021 43.873 52.2951 43.657 52.0491C43.626 52.0141 43.597 51.9821 43.568 51.9481C43.036 51.3641 42.583 50.9151 42.145 50.5381C42.038 50.4451 41.95 50.3631 41.874 50.2911C41.639 50.0731 41.486 49.9311 41.134 49.8071C41.094 49.7921 41.052 49.7791 41.006 49.7641L38.333 47.6441L38.276 47.6001L38.22 47.5551L37.52 46.9991C37.538 46.9691 37.575 46.9151 37.625 46.8441L37.621 46.8431L37.714 46.7241L37.712 46.7231C37.829 46.5611 37.983 46.3561 38.128 46.1621C38.267 45.9781 38.397 45.8051 38.482 45.6941C38.561 45.5901 38.616 45.5171 38.632 45.4951L38.8 45.2661C39.393 44.4551 40.007 43.6191 40.488 42.7281C40.512 42.6841 40.533 42.6391 40.554 42.5951C40.56 42.5831 40.566 42.5711 40.571 42.5591C40.577 42.5461 40.584 42.5341 40.589 42.5231C40.596 42.5091 40.602 42.4971 40.607 42.4841C40.67 42.3461 40.729 42.2171 40.817 42.0941C41.111 41.6831 41.379 41.3671 41.663 41.1071C41.902 40.8891 42.215 40.6361 42.524 40.6361C42.589 40.6361 42.651 40.6471 42.71 40.6681C42.885 40.7361 42.988 40.9031 43.089 41.0651C43.123 41.1191 43.158 41.1751 43.195 41.2271C43.805 42.0731 44.433 42.8481 45.063 43.5341L45.151 43.6301C45.832 44.3711 46.678 45.2941 47.674 45.4891C47.264 46.5351 46.842 47.5791 46.423 48.5951ZM60.647 41.1891C57.164 41.1891 54.342 39.5611 54.342 37.5531C54.342 35.5431 57.164 33.9161 60.647 33.9161C64.128 33.9161 66.95 35.5431 66.95 37.5531C66.951 39.5621 64.129 41.1891 60.647 41.1891Z" fill="black"/>
<path d="M34.02 7.0811L19.082 0.324097" stroke="#231F20" stroke-width="0.7113" stroke-miterlimit="10"/>
<path d="M32.2 10.4601L17.263 3.70215" stroke="#231F20" stroke-width="0.7113" stroke-miterlimit="10"/>
<path d="M30.747 13.8392L15.809 7.08118" stroke="#231F20" stroke-width="0.7113" stroke-miterlimit="10"/>
</svg>
